<svg width="123" height="83" viewBox="0 0 123 83" version="1.1" xmlns="http://www.w3.org/2000/svg" xmlns:xlink="http://www.w3.org/1999/xlink">
<title>Group 3</title>
<desc>Created using Figma</desc>
<g id="Canvas" transform="translate(143 179)">
<g id="Group 3">
<g id="Group 2">
<g id="Group">
<g id="Vector">
<use xlink:href="#path0_fill" transform="matrix(0.991875 -0.127214 0.127214 0.991875 -68 -123.403)" fill="#AED672"/>
<use xlink:href="#path1_stroke" transform="matrix(0.991875 -0.127214 0.127214 0.991875 -68 -123.403)" fill="#487056"/>
</g>
<g id="Ellipse">
<use xlink:href="#path2_fill" transform="matrix(0.96968 -0.244376 0.246608 0.969115 -52.7389 -117.767)" fill="#487056"/>
</g>
</g>
<g id="Group">
<g id="Vector">
<use xlink:href="#path0_fill" transform="matrix(0.991875 -0.127214 0.127214 0.991875 -67 -126.403)" fill="#AED672"/>
<use xlink:href="#path1_stroke" transform="matrix(0.991875 -0.127214 0.127214 0.991875 -67 -126.403)" fill="#487056"/>
</g>
<g id="Ellipse">
<use xlink:href="#path2_fill" transform="matrix(0.96968 -0.244376 0.246608 0.969115 -51.7389 -120.767)" fill="#487056"/>
</g>
</g>
<g id="Group">
<g id="Vector">
<use xlink:href="#path0_fill" transform="matrix(0.991875 -0.127214 0.127214 0.991875 -70 -129.403)" fill="#AED672"/>
<use xlink:href="#path1_stroke" transform="matrix(0.991875 -0.127214 0.127214 0.991875 -70 -129.403)" fill="#487056"/>
</g>
<g id="Ellipse">
<use xlink:href="#path2_fill" transform="matrix(0.96968 -0.244376 0.246608 0.969115 -54.7389 -123.767)" fill="#487056"/>
</g>
</g>
<g id="Group">
<g id="Vector">
<use xlink:href="#path0_fill" transform="matrix(0.991875 -0.127214 0.127214 0.991875 -69 -132.403)" fill="#AED672"/>
<use xlink:href="#path1_stroke" transform="matrix(0.991875 -0.127214 0.127214 0.991875 -69 -132.403)" fill="#487056"/>
</g>
<g id="Ellipse">
<use xlink:href="#path2_fill" transform="matrix(0.96968 -0.244376 0.246608 0.969115 -53.7389 -126.767)" fill="#487056"/>
</g>
</g>
</g>
<g id="B">
<use xlink:href="#path3_fill" transform="translate(-140 -203)" fill="#FFFFFF"/>
<mask id="mask0_outline_out">
<rect id="mask0_outline_inv" fill="white" x="-3" y="25" width="66" height="70" transform="translate(-140 -203)"/>
<use xlink:href="#path3_fill" fill="black" transform="translate(-140 -203)"/>
</mask>
<g mask="url(#mask0_outline_out)">
<use xlink:href="#path4_stroke_2x" transform="translate(-140 -203)" fill="#487056"/>
</g>
</g>
<g id="$">
<use xlink:href="#path5_fill" transform="translate(-108 -203)" fill="#487056"/>
<mask id="mask1_outline_out">
<rect id="mask1_outline_inv" fill="white" x="4" y="24" width="52" height="83" transform="translate(-108 -203)"/>
<use xlink:href="#path5_fill" fill="black" transform="translate(-108 -203)"/>
</mask>
<g mask="url(#mask1_outline_out)">
<use xlink:href="#path6_stroke_2x" transform="translate(-108 -203)" fill="#FFFFFF"/>
</g>
</g>
</g>
</g>
<defs>
<path id="path0_fill" d="M 4.80672 0C 19.8211 2.41975 28.3989 3.07686 44 2.92958C 43.1405 12.6266 42.6321 17.9428 41.4118 26C 25.0128 24.4752 15.9462 23.2709 0 20.507L 4.80672 0Z"/>
<path id="path1_stroke" d="M 4.80672 0L 4.88628 -0.49363L 4.42625 -0.567769L 4.31992 -0.114104L 4.80672 0ZM 44 2.92958L 44.498 2.97372L 44.5467 2.42439L 43.9953 2.4296L 44 2.92958ZM 41.4118 26L 41.3655 26.4979L 41.8354 26.5415L 41.9061 26.0749L 41.4118 26ZM 0 20.507L -0.486806 20.3929L -0.607803 20.9091L -0.0853898 20.9997L 0 20.507ZM 4.72717 0.49363C 19.7696 2.9179 28.3756 3.5771 44.0047 3.42956L 43.9953 2.4296C 28.4223 2.57662 19.8726 1.9216 4.88628 -0.49363L 4.72717 0.49363ZM 43.502 2.88543C 42.6426 12.5805 42.1353 17.884 40.9174 25.9251L 41.9061 26.0749C 43.1289 18.0016 43.6384 12.6726 44.498 2.97372L 43.502 2.88543ZM 41.4581 25.5021C 25.072 23.9786 16.0185 22.776 0.0853898 20.0144L -0.0853898 20.9997C 15.8739 23.7659 24.9536 24.9719 41.3655 26.4979L 41.4581 25.5021ZM 0.486806 20.6211L 5.29353 0.114104L 4.31992 -0.114104L -0.486806 20.3929L 0.486806 20.6211Z"/>
<path id="path2_fill" d="M 14.0485 5.85998C 14.0485 9.09636 10.9036 11.72 7.02424 11.72C 3.14486 11.72 0 9.09636 0 5.85998C 0 2.6236 3.14486 0 7.02424 0C 10.9036 0 14.0485 2.6236 14.0485 5.85998Z"/>
<path id="path3_fill" d="M 43.104 93.096C 30.88 93.096 21.408 92.424 14.688 91.08C 12.96 59.016 11.392 39.624 9.984 32.904L 7.104 33.576C 5.568 33.896 4.096 34.248 2.688 34.632C 1.28 34.952 -0.224 35.432 -1.824 36.072L -1.92 32.808C -1.92 31.72 -0.736 30.728 1.632 29.832C 4 28.872 6.848 28.136 10.176 27.624C 13.568 27.048 16.576 26.76 19.2 26.76C 22.08 26.76 25.376 27.272 29.088 28.296C 32.864 29.32 36.096 30.856 38.784 32.904C 41.472 34.888 42.816 37.256 42.816 40.008C 42.816 43.144 41.6 45.928 39.168 48.36C 36.8 50.728 33.696 52.424 29.856 53.448C 35.488 54.408 40.736 56.136 45.6 58.632C 50.464 61.064 54.368 64.104 57.312 67.752C 60.256 71.336 61.728 75.208 61.728 79.368C 61.728 84.168 59.872 87.656 56.16 89.832C 52.448 92.008 48.096 93.096 43.104 93.096ZM 40.608 87.624C 45.344 87.624 48.992 87.112 51.552 86.088C 54.112 85 55.392 82.696 55.392 79.176C 55.392 75.464 54.272 72.36 52.032 69.864C 49.856 67.304 47.264 65.32 44.256 63.912C 41.312 62.44 37.632 60.904 33.216 59.304C 29.696 58.088 27.072 57.032 25.344 56.136C 23.68 55.176 22.848 54.12 22.848 52.968C 22.848 52.136 23.264 51.496 24.096 51.048C 24.928 50.6 26.4 49.96 28.512 49.128C 31.392 48.168 33.632 47.144 35.232 46.056C 36.896 44.904 37.728 43.304 37.728 41.256C 37.728 38.248 35.904 35.944 32.256 34.344C 28.608 32.68 24.512 31.848 19.968 31.848C 18.688 31.848 17.152 31.976 15.36 32.232C 17.024 42.984 18.176 52.04 18.816 59.4C 19.456 66.696 19.904 75.176 20.16 84.84C 21.056 85.736 23.328 86.408 26.976 86.856C 30.624 87.304 35.168 87.56 40.608 87.624Z"/>
<path id="path4_stroke_2x" d="M 14.688 91.08L 13.6894 91.1338L 13.7312 91.9084L 14.4919 92.0606L 14.688 91.08ZM 9.984 32.904L 10.9627 32.6989L 10.753 31.6977L 9.75677 31.9302L 9.984 32.904ZM 7.104 33.576L 7.30795 34.555L 7.31962 34.5525L 7.33123 34.5498L 7.104 33.576ZM 2.688 34.632L 2.90962 35.6071L 2.93048 35.6024L 2.95112 35.5968L 2.688 34.632ZM -1.824 36.072L -2.82357 36.1014L -2.78149 37.532L -1.45261 37.0005L -1.824 36.072ZM -1.92 32.808L -2.92 32.808L -2.92 32.8227L -2.91957 32.8374L -1.92 32.808ZM 1.632 29.832L 1.98589 30.7673L 1.99685 30.7631L 2.0077 30.7587L 1.632 29.832ZM 10.176 27.624L 10.3281 28.6124L 10.3357 28.6112L 10.3434 28.6099L 10.176 27.624ZM 29.088 28.296L 28.8221 29.26L 28.8263 29.2611L 29.088 28.296ZM 38.784 32.904L 38.178 33.6994L 38.184 33.7041L 38.1901 33.7086L 38.784 32.904ZM 29.856 53.448L 29.5983 52.4818L 29.688 54.4338L 29.856 53.448ZM 45.6 58.632L 45.1434 59.5217L 45.1528 59.5264L 45.6 58.632ZM 57.312 67.752L 56.5338 68.38L 56.5393 68.3867L 57.312 67.752ZM 56.16 89.832L 55.6543 88.9693L 55.6543 88.9693L 56.16 89.832ZM 40.608 87.624L 40.5962 88.624L 40.608 88.624L 40.608 87.624ZM 51.552 86.088L 51.9234 87.0165L 51.9333 87.0125L 51.9431 87.0083L 51.552 86.088ZM 52.032 69.864L 51.2701 70.5116L 51.2788 70.5219L 51.2878 70.5319L 52.032 69.864ZM 44.256 63.912L 43.8088 64.8064L 43.8203 64.8122L 43.8321 64.8177L 44.256 63.912ZM 33.216 59.304L 33.5566 58.3638L 33.5496 58.3613L 33.5425 58.3588L 33.216 59.304ZM 25.344 56.136L 24.8443 57.0022L 24.8637 57.0134L 24.8837 57.0238L 25.344 56.136ZM 24.096 51.048L 23.6219 50.1675L 23.6219 50.1675L 24.096 51.048ZM 28.512 49.128L 28.1958 48.1793L 28.1704 48.1878L 28.1455 48.1976L 28.512 49.128ZM 35.232 46.056L 35.7943 46.883L 35.8012 46.8782L 35.232 46.056ZM 32.256 34.344L 31.841 35.2538L 31.8476 35.2569L 31.8543 35.2598L 32.256 34.344ZM 15.36 32.232L 15.2186 31.242L 14.217 31.3851L 14.3718 32.3849L 15.36 32.232ZM 18.816 59.4L 17.8198 59.4866L 17.8198 59.4874L 18.816 59.4ZM 20.16 84.84L 19.1604 84.8665L 19.1709 85.2651L 19.4529 85.5471L 20.16 84.84ZM 26.976 86.856L 27.0979 85.8635L 26.976 86.856ZM 43.104 92.096C 30.9033 92.096 21.5081 91.4242 14.8841 90.0994L 14.4919 92.0606C 21.3079 93.4238 30.8567 94.096 43.104 94.096L 43.104 92.096ZM 15.6866 91.0262C 13.9605 58.9988 12.3904 39.5126 10.9627 32.6989L 9.00525 33.1091C 10.3936 39.7354 11.9595 59.0332 13.6894 91.1338L 15.6866 91.0262ZM 9.75677 31.9302L 6.87677 32.6022L 7.33123 34.5498L 10.2112 33.8778L 9.75677 31.9302ZM 6.90005 32.597C 5.34565 32.9209 3.85385 33.2775 2.42488 33.6672L 2.95112 35.5968C 4.33815 35.2185 5.79035 34.8711 7.30795 34.555L 6.90005 32.597ZM 2.46638 33.6569C 0.99866 33.9904 -0.555763 34.4877 -2.19539 35.1435L -1.45261 37.0005C 0.107763 36.3763 1.56134 35.9136 2.90962 35.6071L 2.46638 33.6569ZM -0.824432 36.0426L -0.920432 32.7786L -2.91957 32.8374L -2.82357 36.1014L -0.824432 36.0426ZM -0.92 32.808C -0.92 32.6683 -0.8539 32.4034 -0.38978 32.0145C 0.0789026 31.6218 0.848658 31.1976 1.98589 30.7673L 1.27811 28.8967C 0.0473422 29.3624 -0.958902 29.8822 -1.67422 30.4815C -2.3941 31.0846 -2.92 31.8597 -2.92 32.808L -0.92 32.808ZM 2.0077 30.7587C 4.28525 29.8354 7.05405 29.1161 10.3281 28.6124L 10.0239 26.6356C 6.64195 27.1559 3.71475 27.9086 1.2563 28.9053L 2.0077 30.7587ZM 10.3434 28.6099C 13.6961 28.0406 16.6463 27.76 19.2 27.76L 19.2 25.76C 16.5057 25.76 13.4399 26.0554 10.0086 26.6381L 10.3434 28.6099ZM 19.2 27.76C 21.9658 27.76 25.1695 28.2524 28.8221 29.26L 29.3539 27.332C 25.5825 26.2916 22.1942 25.76 19.2 25.76L 19.2 27.76ZM 28.8263 29.2611C 32.497 30.2566 35.6076 31.741 38.178 33.6994L 39.39 32.1086C 36.5844 29.971 33.231 28.3834 29.3497 27.3309L 28.8263 29.2611ZM 38.1901 33.7086C 40.6841 35.5494 41.816 37.6427 41.816 40.008L 43.816 40.008C 43.816 36.8693 42.2599 34.2266 39.3779 32.0994L 38.1901 33.7086ZM 41.816 40.008C 41.816 42.8518 40.7253 45.3885 38.4609 47.6529L 39.8751 49.0671C 42.4747 46.4675 43.816 43.4362 43.816 40.008L 41.816 40.008ZM 38.4609 47.6529C 36.2387 49.8751 33.3002 51.4946 29.5983 52.4818L 30.1137 54.4142C 34.0918 53.3534 37.3613 51.5809 39.8751 49.0671L 38.4609 47.6529ZM 29.688 54.4338C 35.224 55.3774 40.3742 57.0743 45.1434 59.5217L 46.0566 57.7423C 41.0978 55.1977 35.752 53.4386 30.024 52.4622L 29.688 54.4338ZM 45.1528 59.5264C 49.909 61.9046 53.6931 64.86 56.5338 68.38L 58.0902 67.124C 55.0429 63.348 51.019 60.2234 46.0472 57.7376L 45.1528 59.5264ZM 56.5393 68.3867C 59.3543 71.8137 60.728 75.4663 60.728 79.368L 62.728 79.368C 62.728 74.9497 61.1577 70.8583 58.0847 67.1173L 56.5393 68.3867ZM 60.728 79.368C 60.728 83.8625 59.0198 86.9964 55.6543 88.9693L 56.6657 90.6947C 60.7242 88.3156 62.728 84.4735 62.728 79.368L 60.728 79.368ZM 55.6543 88.9693C 52.1188 91.0419 47.9471 92.096 43.104 92.096L 43.104 94.096C 48.2449 94.096 52.7772 92.9741 56.6657 90.6947L 55.6543 88.9693ZM 40.608 88.624C 45.3932 88.624 49.1897 88.11 51.9234 87.0165L 51.1806 85.1595C 48.7943 86.114 45.2948 86.624 40.608 86.624L 40.608 88.624ZM 51.9431 87.0083C 53.4159 86.3824 54.5518 85.3875 55.3062 84.0296C 56.0518 82.6875 56.392 81.051 56.392 79.176L 54.392 79.176C 54.392 80.821 54.0922 82.0965 53.5578 83.0584C 53.0322 84.0045 52.2481 84.7056 51.1609 85.1677L 51.9431 87.0083ZM 56.392 79.176C 56.392 75.2459 55.199 71.8957 52.7762 69.1961L 51.2878 70.5319C 53.345 72.8243 54.392 75.6821 54.392 79.176L 56.392 79.176ZM 52.7939 69.2164C 50.5262 66.5484 47.8194 64.4758 44.6799 63.0063L 43.8321 64.8177C 46.7086 66.1642 49.1858 68.0596 51.2701 70.5116L 52.7939 69.2164ZM 44.7032 63.0176C 41.7135 61.5227 37.9951 59.9719 33.5566 58.3638L 32.8753 60.2442C 37.2689 61.8361 40.9105 63.3573 43.8088 64.8064L 44.7032 63.0176ZM 33.5425 58.3588C 30.035 57.1471 27.4663 56.11 25.8043 55.2482L 24.8837 57.0238C 26.6777 57.954 29.357 59.0289 32.8895 60.2492L 33.5425 58.3588ZM 25.8437 55.2698C 24.2747 54.3646 23.848 53.5698 23.848 52.968L 21.848 52.968C 21.848 54.6702 23.0853 55.9874 24.8443 57.0022L 25.8437 55.2698ZM 23.848 52.968C 23.848 52.5609 24.0085 52.2309 24.5701 51.9285L 23.6219 50.1675C 22.5195 50.7611 21.848 51.7111 21.848 52.968L 23.848 52.968ZM 24.5701 51.9285C 25.3444 51.5115 26.7667 50.8904 28.8785 50.0584L 28.1455 48.1976C 26.0333 49.0296 24.5116 49.6885 23.6219 50.1675L 24.5701 51.9285ZM 28.8282 50.0767C 31.7519 49.1021 34.0879 48.0433 35.7943 46.8829L 34.6697 45.2291C 33.1761 46.2447 31.0321 47.2339 28.1958 48.1793L 28.8282 50.0767ZM 35.8012 46.8782C 37.7388 45.5368 38.728 43.6275 38.728 41.256L 36.728 41.256C 36.728 42.9805 36.0532 44.2712 34.6628 45.2338L 35.8012 46.8782ZM 38.728 41.256C 38.728 39.5324 38.1994 37.9844 37.144 36.6513C 36.101 35.3338 34.5805 34.2716 32.6577 33.4282L 31.8543 35.2598C 33.5795 36.0164 34.795 36.9062 35.576 37.8927C 36.3446 38.8636 36.728 39.9716 36.728 41.256L 38.728 41.256ZM 32.671 33.4342C 28.8764 31.7033 24.6361 30.848 19.968 30.848L 19.968 32.848C 24.3879 32.848 28.3396 33.6567 31.841 35.2538L 32.671 33.4342ZM 19.968 30.848C 18.6258 30.848 17.0399 30.9819 15.2186 31.242L 15.5014 33.2219C 17.2641 32.9701 18.7502 32.848 19.968 32.848L 19.968 30.848ZM 14.3718 32.3849C 16.0338 43.1242 17.1824 52.1565 17.8198 59.4866L 19.8122 59.3134C 19.1696 51.9235 18.0142 42.8438 16.3482 32.0791L 14.3718 32.3849ZM 17.8198 59.4874C 18.4576 66.7579 18.9047 75.2168 19.1604 84.8665L 21.1596 84.8135C 20.9033 75.1352 20.4544 66.6341 19.8122 59.3126L 17.8198 59.4874ZM 19.4529 85.5471C 20.0823 86.1765 21.0731 86.6261 22.2524 86.9749C 23.4618 87.3326 25.0017 87.6211 26.8541 87.8485L 27.0979 85.8635C 25.3023 85.6429 23.8822 85.3714 22.8196 85.0571C 21.7269 84.7339 21.1337 84.3995 20.8671 84.1329L 19.4529 85.5471ZM 26.8541 87.8485C 30.5515 88.3026 35.1351 88.5597 40.5962 88.6239L 40.6198 86.6241C 35.2009 86.5603 30.6965 86.3054 27.0979 85.8635L 26.8541 87.8485Z"/>
<path id="path5_fill" d="M 41.28 62.568C 45.696 65.64 48.992 68.616 51.168 71.496C 53.344 74.376 54.336 77.8 54.144 81.768C 53.952 85.416 52.288 88.36 49.152 90.6C 46.08 92.776 42.208 94.088 37.536 94.536L 36.48 103.08C 36.352 103.848 36.032 104.52 35.52 105.096C 35.072 105.672 34.4 105.96 33.504 105.96C 33.056 105.96 32.48 105.864 31.776 105.672C 31.264 105.48 30.912 105.288 30.72 105.096C 30.528 104.968 30.464 104.744 30.528 104.424C 30.912 103.016 31.328 100.744 31.776 97.608C 31.904 96.328 32.032 95.368 32.16 94.728C 29.664 94.6 27.264 94.312 24.96 93.864L 23.616 101.544C 23.488 102.248 23.168 102.856 22.656 103.368C 22.144 103.944 21.44 104.232 20.544 104.232C 20.096 104.232 19.52 104.136 18.816 103.944C 17.792 103.624 17.376 103.176 17.568 102.6C 18.016 101.064 18.528 98.728 19.104 95.592L 19.68 92.616C 15.456 91.208 12.096 89.288 9.6 86.856C 7.104 84.424 5.856 81.512 5.856 78.12C 5.856 76.328 6.272 74.92 7.104 73.896C 8 72.808 9.12 72.264 10.464 72.264C 10.464 75.72 11.392 78.696 13.248 81.192C 15.104 83.688 17.664 85.672 20.928 87.144C 22.592 80.296 24.288 71.272 26.016 60.072C 23.2 58.408 21.056 56.936 19.584 55.656C 18.112 54.312 17.088 52.904 16.512 51.432C 15.936 49.96 15.648 48.136 15.648 45.96C 15.648 42.696 16.928 40.2 19.488 38.472C 22.112 36.744 25.248 35.624 28.896 35.112C 29.28 30.568 29.6 27.56 29.856 26.088C 29.92 25.512 30.496 25.288 31.584 25.416C 33.056 25.608 33.696 28.776 33.504 34.92C 35.552 35.048 37.44 35.24 39.168 35.496C 39.424 31.656 39.552 28.968 39.552 27.432C 39.552 26.792 40.096 26.536 41.184 26.664C 42.72 26.856 43.488 30.184 43.488 36.648C 45.728 37.416 47.456 38.408 48.672 39.624C 49.952 40.84 50.592 42.184 50.592 43.656C 50.016 43.912 49.376 44.04 48.672 44.04C 47.904 44.04 47.104 43.912 46.272 43.656C 45.504 43.336 44.512 42.888 43.296 42.312C 42.784 48.776 42.112 55.528 41.28 62.568ZM 38.88 40.2C 36.96 39.432 35.072 39.016 33.216 38.952C 32.768 43.368 32.032 49.032 31.008 55.944C 34.208 57.864 36.192 59.08 36.96 59.592L 37.344 59.88C 38.048 53.48 38.496 48.104 38.688 43.752L 38.88 40.2ZM 21.024 45.768C 21.024 47.176 21.536 48.488 22.56 49.704C 23.584 50.92 25.088 52.168 27.072 53.448C 27.456 50.44 27.872 46.76 28.32 42.408L 28.608 39.144C 26.048 39.4 24.128 40.04 22.848 41.064C 21.632 42.088 21.024 43.656 21.024 45.768ZM 25.824 88.776C 27.616 89.224 30.016 89.576 33.024 89.832L 33.12 89.16C 34.336 83.464 35.52 75.72 36.672 65.928L 33.504 64.2L 30.048 62.376L 25.824 88.776ZM 38.112 89.736C 41.952 89.416 44.8 88.488 46.656 86.952C 48.512 85.352 49.344 83.24 49.152 80.616C 48.96 78.312 48.32 76.264 47.232 74.472C 46.144 72.616 43.936 70.6 40.608 68.424C 39.904 74.504 39.392 78.792 39.072 81.288L 38.112 89.736Z"/>
<path id="path6_stroke_2x" d="M 41.28 62.568L 40.2869 62.4506L 40.2165 63.0463L 40.7089 63.3889L 41.28 62.568ZM 51.168 71.496L 51.9659 70.8932L 51.9659 70.8932L 51.168 71.496ZM 54.144 81.768L 55.1426 81.8206L 55.1428 81.8163L 54.144 81.768ZM 49.152 90.6L 49.73 91.416L 49.7332 91.4137L 49.152 90.6ZM 37.536 94.536L 37.4405 93.5406L 36.642 93.6171L 36.5436 94.4133L 37.536 94.536ZM 36.48 103.08L 37.4664 103.244L 37.4699 103.224L 37.4724 103.203L 36.48 103.08ZM 35.52 105.096L 34.7726 104.432L 34.7508 104.456L 34.7306 104.482L 35.52 105.096ZM 31.776 105.672L 31.4249 106.608L 31.4682 106.625L 31.5129 106.637L 31.776 105.672ZM 30.72 105.096L 31.4271 104.389L 31.3571 104.319L 31.2747 104.264L 30.72 105.096ZM 30.528 104.424L 29.5632 104.161L 29.5542 104.194L 29.5474 104.228L 30.528 104.424ZM 31.776 97.608L 32.7659 97.7494L 32.7689 97.7285L 32.771 97.7075L 31.776 97.608ZM 32.16 94.728L 33.1406 94.9241L 33.3677 93.7886L 32.2112 93.7293L 32.16 94.728ZM 24.96 93.864L 25.1509 92.8824L 24.1506 92.6879L 23.975 93.6916L 24.96 93.864ZM 23.616 101.544L 24.5999 101.723L 24.601 101.716L 23.616 101.544ZM 22.656 103.368L 21.9489 102.661L 21.9281 102.682L 21.9086 102.704L 22.656 103.368ZM 18.816 103.944L 18.5177 104.898L 18.5352 104.904L 18.5529 104.909L 18.816 103.944ZM 17.568 102.6L 18.5167 102.916L 18.5227 102.898L 18.528 102.88L 17.568 102.6ZM 19.104 95.592L 18.1222 95.402L 18.1205 95.4113L 19.104 95.592ZM 19.68 92.616L 20.6618 92.806L 20.8285 91.9447L 19.9962 91.6673L 19.68 92.616ZM 9.6 86.856L 10.2979 86.1398L 10.2979 86.1398L 9.6 86.856ZM 7.104 73.896L 6.33205 73.2603L 6.32789 73.2654L 7.104 73.896ZM 10.464 72.264L 11.464 72.264L 11.464 71.264L 10.464 71.264L 10.464 72.264ZM 13.248 81.192L 14.0505 80.5953L 14.0505 80.5953L 13.248 81.192ZM 20.928 87.144L 20.5169 88.0556L 21.6152 88.5509L 21.8997 87.3801L 20.928 87.144ZM 26.016 60.072L 27.0043 60.2245L 27.1075 59.5555L 26.5247 59.2111L 26.016 60.072ZM 19.584 55.656L 18.9097 56.3945L 18.9187 56.4027L 18.9278 56.4106L 19.584 55.656ZM 16.512 51.432L 17.4432 51.0676L 17.4432 51.0676L 16.512 51.432ZM 19.488 38.472L 18.938 37.6368L 18.9285 37.6431L 19.488 38.472ZM 28.896 35.112L 29.035 36.1023L 29.8253 35.9914L 29.8924 35.1962L 28.896 35.112ZM 29.856 26.088L 30.8412 26.2593L 30.8465 26.229L 30.8499 26.1984L 29.856 26.088ZM 31.584 25.416L 31.7133 24.4243L 31.7008 24.4228L 31.584 25.416ZM 33.504 34.92L 32.5045 34.8888L 32.4742 35.8576L 33.4416 35.9181L 33.504 34.92ZM 39.168 35.496L 39.0215 36.4852L 40.0937 36.6441L 40.1658 35.5625L 39.168 35.496ZM 41.184 26.664L 41.308 25.6717L 41.3008 25.6709L 41.184 26.664ZM 43.488 36.648L 42.488 36.648L 42.488 37.3623L 43.1637 37.5939L 43.488 36.648ZM 48.672 39.624L 47.9649 40.3311L 47.974 40.3402L 47.9833 40.349L 48.672 39.624ZM 50.592 43.656L 50.9981 44.5698L 51.592 44.3059L 51.592 43.656L 50.592 43.656ZM 46.272 43.656L 45.8874 44.5791L 45.9319 44.5976L 45.9779 44.6118L 46.272 43.656ZM 43.296 42.312L 43.7241 41.4083L 42.4136 40.7875L 42.2991 42.233L 43.296 42.312ZM 38.88 40.2L 39.8785 40.254L 39.9173 39.5379L 39.2514 39.2715L 38.88 40.2ZM 33.216 38.952L 33.2505 37.9526L 32.3155 37.9204L 32.2211 38.8511L 33.216 38.952ZM 31.008 55.944L 30.0188 55.7975L 29.9209 56.458L 30.4935 56.8015L 31.008 55.944ZM 36.96 59.592L 37.56 58.792L 37.5378 58.7753L 37.5147 58.76L 36.96 59.592ZM 37.344 59.88L 36.744 60.68L 38.1463 61.7317L 38.338 59.9893L 37.344 59.88ZM 38.688 43.752L 37.6894 43.698L 37.689 43.7079L 38.688 43.752ZM 22.56 49.704L 23.3249 49.0599L 23.3249 49.0599L 22.56 49.704ZM 27.072 53.448L 26.5299 54.2883L 27.863 55.1484L 28.064 53.5746L 27.072 53.448ZM 28.32 42.408L 29.3147 42.5104L 29.3155 42.5032L 29.3161 42.4959L 28.32 42.408ZM 28.608 39.144L 29.6041 39.2319L 29.7103 38.0288L 28.5085 38.149L 28.608 39.144ZM 22.848 41.064L 22.2233 40.2831L 22.2135 40.291L 22.2039 40.2991L 22.848 41.064ZM 25.824 88.776L 24.8366 88.618L 24.6917 89.5237L 25.5815 89.7461L 25.824 88.776ZM 33.024 89.832L 32.9392 90.8284L 33.8804 90.9085L 34.014 89.9734L 33.024 89.832ZM 33.12 89.16L 32.142 88.9512L 32.1349 88.9847L 32.1301 89.0186L 33.12 89.16ZM 36.672 65.928L 37.6652 66.0448L 37.7441 65.3737L 37.1509 65.0501L 36.672 65.928ZM 33.504 64.2L 33.9829 63.322L 33.9708 63.3156L 33.504 64.2ZM 30.048 62.376L 30.5148 61.4916L 29.281 60.8404L 29.0606 62.218L 30.048 62.376ZM 38.112 89.736L 37.1184 89.6231L 36.9808 90.8337L 38.195 90.7325L 38.112 89.736ZM 46.656 86.952L 47.2936 87.7224L 47.3013 87.716L 47.3089 87.7094L 46.656 86.952ZM 49.152 80.616L 50.1494 80.543L 50.1485 80.533L 49.152 80.616ZM 47.232 74.472L 46.3693 74.9777L 46.3732 74.9844L 46.3772 74.991L 47.232 74.472ZM 40.608 68.424L 41.1553 67.587L 39.8008 66.7014L 39.6146 68.309L 40.608 68.424ZM 39.072 81.288L 38.0801 81.1608L 38.0792 81.168L 38.0784 81.1751L 39.072 81.288ZM 40.7089 63.3889C 45.0765 66.4272 48.2808 69.3335 50.3701 72.0988L 51.9659 70.8932C 49.7032 67.8985 46.3155 64.8528 41.8511 61.7471L 40.7089 63.3889ZM 50.3701 72.0988C 52.3905 74.7728 53.3271 77.9604 53.1452 81.7197L 55.1428 81.8163C 55.3449 77.6396 54.2975 73.9792 51.9659 70.8932L 50.3701 72.0988ZM 53.1454 81.7154C 52.9704 85.0406 51.4747 87.712 48.5708 89.7863L 49.7332 91.4137C 53.1013 89.008 54.9336 85.7914 55.1426 81.8206L 53.1454 81.7154ZM 48.574 89.784C 45.6755 91.837 41.9812 93.1052 37.4405 93.5406L 37.6315 95.5314C 42.4348 95.0708 46.4845 93.715 49.73 91.416L 48.574 89.784ZM 36.5436 94.4133L 35.4876 102.957L 37.4724 103.203L 38.5284 94.6587L 36.5436 94.4133ZM 35.4936 102.916C 35.3962 103.5 35.1581 103.998 34.7726 104.432L 36.2674 105.76C 36.9059 105.042 37.3078 104.196 37.4664 103.244L 35.4936 102.916ZM 34.7306 104.482C 34.5153 104.759 34.1694 104.96 33.504 104.96L 33.504 106.96C 34.6306 106.96 35.6287 106.585 36.3094 105.71L 34.7306 104.482ZM 33.504 104.96C 33.1828 104.96 32.7039 104.889 32.0391 104.707L 31.5129 106.637C 32.2561 106.839 32.9292 106.96 33.504 106.96L 33.504 104.96ZM 32.1271 104.736C 31.9004 104.651 31.73 104.573 31.6069 104.506C 31.546 104.473 31.5017 104.445 31.4707 104.423C 31.4392 104.401 31.427 104.389 31.4271 104.389L 30.0129 105.803C 30.3642 106.154 30.8876 106.407 31.4249 106.608L 32.1271 104.736ZM 31.2747 104.264C 31.3191 104.294 31.367 104.336 31.4087 104.394C 31.4503 104.451 31.4756 104.509 31.4895 104.557C 31.5153 104.647 31.496 104.683 31.5086 104.62L 29.5474 104.228C 29.4429 104.75 29.4968 105.482 30.1653 105.928L 31.2747 104.264ZM 31.4928 104.687C 31.8943 103.215 32.3172 100.89 32.7659 97.7494L 30.7861 97.4666C 30.3388 100.598 29.9297 102.817 29.5632 104.161L 31.4928 104.687ZM 32.771 97.7075C 32.8983 96.4352 33.0225 95.5147 33.1406 94.9241L 31.1794 94.5319C 31.0415 95.2213 30.9097 96.2208 30.781 97.5085L 32.771 97.7075ZM 32.2112 93.7293C 29.7591 93.6036 27.4059 93.3209 25.1509 92.8824L 24.7691 94.8456C 27.1221 95.3031 29.5689 95.5964 32.1088 95.7267L 32.2112 93.7293ZM 23.975 93.6916L 22.631 101.372L 24.601 101.716L 25.945 94.0364L 23.975 93.6916ZM 22.6321 101.365C 22.541 101.866 22.3189 102.291 21.9489 102.661L 23.3631 104.075C 24.0171 103.421 24.435 102.63 24.5999 101.723L 22.6321 101.365ZM 21.9086 102.704C 21.6179 103.031 21.2055 103.232 20.544 103.232L 20.544 105.232C 21.6745 105.232 22.6701 104.857 23.4034 104.032L 21.9086 102.704ZM 20.544 103.232C 20.2228 103.232 19.7439 103.161 19.0791 102.979L 18.5529 104.909C 19.2961 105.111 19.9692 105.232 20.544 105.232L 20.544 103.232ZM 19.1143 102.99C 18.9004 102.923 18.7435 102.857 18.6326 102.798C 18.5199 102.738 18.4767 102.696 18.4688 102.688C 18.4659 102.684 18.4987 102.72 18.5149 102.794C 18.5311 102.869 18.5165 102.917 18.5167 102.916L 16.6193 102.284C 16.5235 102.571 16.4889 102.891 16.5611 103.222C 16.6333 103.552 16.7981 103.828 17.0032 104.048C 17.3886 104.463 17.9482 104.721 18.5177 104.898L 19.1143 102.99ZM 18.528 102.88C 18.9908 101.293 19.5102 98.9162 20.0875 95.7727L 18.1205 95.4113C 17.5458 98.5398 17.0412 100.835 16.608 102.32L 18.528 102.88ZM 20.0858 95.782L 20.6618 92.806L 18.6982 92.426L 18.1222 95.402L 20.0858 95.782ZM 19.9962 91.6673C 15.8769 90.2942 12.6601 88.4415 10.2979 86.1398L 8.90214 87.5722C 11.5319 90.1345 15.0351 92.1218 19.3638 93.5647L 19.9962 91.6673ZM 10.2979 86.1398C 7.9891 83.8902 6.856 81.2341 6.856 78.12L 4.856 78.12C 4.856 81.7899 6.2189 84.9578 8.90214 87.5722L 10.2979 86.1398ZM 6.856 78.12C 6.856 76.4757 7.23734 75.3177 7.88011 74.5266L 6.32789 73.2654C 5.30666 74.5223 4.856 76.1803 4.856 78.12L 6.856 78.12ZM 7.87593 74.5317C 8.59261 73.6615 9.43516 73.264 10.464 73.264L 10.464 71.264C 8.80484 71.264 7.40739 71.9545 6.33207 73.2603L 7.87593 74.5317ZM 9.464 72.264C 9.464 75.9099 10.4471 79.1011 12.4455 81.7887L 14.0505 80.5953C 12.3369 78.2909 11.464 75.5301 11.464 72.264L 9.464 72.264ZM 12.4455 81.7887C 14.4175 84.4407 17.1215 86.5243 20.5169 88.0556L 21.3391 86.2324C 18.2065 84.8197 15.7905 82.9353 14.0505 80.5953L 12.4455 81.7887ZM 21.8997 87.3801C 23.5732 80.4931 25.2742 71.4379 27.0043 60.2245L 25.0277 59.9195C 23.3018 71.1061 21.6108 80.0989 19.9563 86.9079L 21.8997 87.3801ZM 26.5247 59.2111C 23.7311 57.5603 21.646 56.1238 20.2402 54.9014L 18.9278 56.4106C 20.466 57.7482 22.6689 59.2557 25.5073 60.9329L 26.5247 59.2111ZM 20.2583 54.9175C 18.8707 53.6506 17.9507 52.3646 17.4432 51.0676L 15.5808 51.7964C 16.2253 53.4434 17.3533 54.9734 18.9097 56.3945L 20.2583 54.9175ZM 17.4432 51.0676C 16.9263 49.7465 16.648 48.0551 16.648 45.96L 14.648 45.96C 14.648 48.2169 14.9457 50.1735 15.5808 51.7964L 17.4432 51.0676ZM 16.648 45.96C 16.648 43.0059 17.781 40.8307 20.0475 39.3008L 18.9285 37.6431C 16.075 39.5693 14.648 42.3861 14.648 45.96L 16.648 45.96ZM 20.038 39.3072C 22.5186 37.6736 25.5086 36.5972 29.035 36.1023L 28.757 34.1217C 24.9874 34.6508 21.7054 35.8144 18.938 37.6368L 20.038 39.3072ZM 29.8924 35.1962C 30.2771 30.6443 30.594 27.6806 30.8412 26.2593L 28.8708 25.9167C 28.606 27.4394 28.2829 30.4917 27.8996 35.0278L 29.8924 35.1962ZM 30.8499 26.1984C 30.8478 26.2172 30.8341 26.2801 30.7809 26.3467C 30.7302 26.41 30.6847 26.4254 30.6984 26.42C 30.7176 26.4125 30.7841 26.3923 30.9216 26.3843C 31.0566 26.3766 31.2361 26.382 31.4672 26.4092L 31.7008 24.4228C 31.1021 24.3524 30.4902 24.3551 29.9736 24.556C 29.6993 24.6626 29.4298 24.834 29.2191 25.0973C 29.0059 25.3639 28.8962 25.6708 28.8621 25.9776L 30.8499 26.1984ZM 31.4547 26.4076C 31.4598 26.4083 31.4722 26.4092 31.5019 26.4311C 31.5375 26.4575 31.603 26.5191 31.6854 26.6502C 31.8572 26.9236 32.0386 27.3956 32.1878 28.134C 32.4845 29.6026 32.5998 31.8379 32.5045 34.8888L 34.5035 34.9512C 34.6002 31.8581 34.4915 29.4374 34.1482 27.738C 33.9774 26.8925 33.7348 26.1524 33.3786 25.5858C 33.0129 25.0039 32.4688 24.5229 31.7133 24.4244L 31.4547 26.4076ZM 33.4416 35.9181C 35.4662 36.0446 37.3257 36.234 39.0215 36.4852L 39.3145 34.5068C 37.5543 34.246 35.6378 34.0514 33.5664 33.9219L 33.4416 35.9181ZM 40.1658 35.5625C 40.4217 31.7235 40.552 29.0052 40.552 27.432L 38.552 27.432C 38.552 28.9308 38.4263 31.5885 38.1702 35.4295L 40.1658 35.5625ZM 40.552 27.432C 40.552 27.4145 40.5548 27.4672 40.5088 27.543C 40.4604 27.6227 40.4007 27.6578 40.3858 27.6648C 40.3808 27.6672 40.424 27.6467 40.5482 27.6369C 40.6696 27.6274 40.8397 27.6304 41.0672 27.6572L 41.3008 25.6709C 40.7022 25.6004 40.0643 25.6057 39.5342 25.8552C 39.2473 25.9902 38.9836 26.2013 38.7992 26.505C 38.6172 26.8048 38.552 27.1294 38.552 27.432L 40.552 27.432ZM 41.06 27.6563C 41.0723 27.6578 41.0947 27.6619 41.1364 27.6922C 41.1839 27.7267 41.2608 27.7993 41.3553 27.9437C 41.5511 28.2427 41.7577 28.7492 41.9376 29.5289C 42.2956 31.0803 42.488 33.4373 42.488 36.648L 44.488 36.648C 44.488 33.3947 44.2964 30.8557 43.8864 29.0791C 43.6823 28.1948 43.4089 27.4293 43.0287 26.8483C 42.6407 26.2556 42.0779 25.768 41.308 25.6717L 41.06 27.6563ZM 43.1637 37.5939C 45.3108 38.3301 46.8893 39.2555 47.9649 40.3311L 49.3791 38.9169C 48.0227 37.5605 46.1452 36.5019 43.8123 35.7021L 43.1637 37.5939ZM 47.9833 40.349C 49.1073 41.4168 49.592 42.512 49.592 43.656L 51.592 43.656C 51.592 41.856 50.7967 40.2632 49.3608 38.899L 47.9833 40.349ZM 50.1859 42.7422C 49.7519 42.9351 49.2525 43.04 48.672 43.04L 48.672 45.04C 49.4995 45.04 50.2801 44.8889 50.9981 44.5698L 50.1859 42.7422ZM 48.672 43.04C 48.016 43.04 47.3153 42.9308 46.5661 42.7002L 45.9779 44.6118C 46.8927 44.8932 47.792 45.04 48.672 45.04L 48.672 43.04ZM 46.6566 42.7329C 45.9094 42.4216 44.9333 41.9811 43.7241 41.4083L 42.8679 43.2157C 44.0907 43.7949 45.0986 44.2504 45.8874 44.5791L 46.6566 42.7329ZM 42.2991 42.233C 41.7882 48.6831 41.1175 55.4222 40.2869 62.4506L 42.2731 62.6854C 43.1065 55.6338 43.7798 48.8689 44.2929 42.391L 42.2991 42.233ZM 39.2514 39.2715C 37.2361 38.4654 35.2344 38.021 33.2505 37.9526L 33.1815 39.9514C 34.9096 40.011 36.6839 40.3986 38.5086 41.1285L 39.2514 39.2715ZM 32.2211 38.8511C 31.7753 43.2458 31.0417 48.8931 30.0188 55.7975L 31.9972 56.0905C 33.0223 49.1709 33.7607 43.4902 34.2109 39.0529L 32.2211 38.8511ZM 30.4935 56.8015C 33.7013 58.7262 35.6616 59.9283 36.4053 60.4241L 37.5147 58.76C 36.7224 58.2317 34.7147 57.0018 31.5225 55.0865L 30.4935 56.8015ZM 36.36 60.392L 36.744 60.68L 37.944 59.08L 37.56 58.792L 36.36 60.392ZM 38.338 59.9893C 39.0434 53.5768 39.4937 48.1775 39.687 43.7961L 37.689 43.7079C 37.4983 48.0305 37.0526 53.3832 36.35 59.7707L 38.338 59.9893ZM 39.6865 43.806L 39.8785 40.254L 37.8815 40.146L 37.6895 43.698L 39.6865 43.806ZM 20.024 45.768C 20.024 47.4422 20.6401 48.9766 21.7951 50.3481L 23.3249 49.0599C 22.4319 47.9994 22.024 46.9098 22.024 45.768L 20.024 45.768ZM 21.7951 50.3481C 22.9061 51.6675 24.4987 52.9779 26.5299 54.2883L 27.6141 52.6077C 25.6773 51.3581 24.2619 50.1725 23.3249 49.0599L 21.7951 50.3481ZM 28.064 53.5746C 28.4493 50.5559 28.8662 46.8673 29.3147 42.5104L 27.3253 42.3056C 26.8778 46.6527 26.4627 50.3241 26.0801 53.3214L 28.064 53.5746ZM 29.3161 42.4959L 29.6041 39.2319L 27.6119 39.0561L 27.3239 42.3201L 29.3161 42.4959ZM 28.5085 38.149C 25.8569 38.4141 23.7172 39.088 22.2233 40.2831L 23.4727 41.8449C 24.5388 40.992 26.2391 40.3859 28.7075 40.139L 28.5085 38.149ZM 22.2039 40.2991C 20.6937 41.5708 20.024 43.4641 20.024 45.768L 22.024 45.768C 22.024 43.8479 22.5703 42.6052 23.4921 41.8289L 22.2039 40.2991ZM 25.5815 89.7461C 27.4473 90.2126 29.9068 90.5703 32.9392 90.8284L 33.1088 88.8356C 30.1252 88.5817 27.7847 88.2354 26.0665 87.8059L 25.5815 89.7461ZM 34.014 89.9734L 34.1099 89.3014L 32.1301 89.0186L 32.0341 89.6906L 34.014 89.9734ZM 34.098 89.3688C 35.3234 83.6287 36.5116 75.8498 37.6652 66.0448L 35.6788 65.8112C 34.5284 75.5902 33.3486 83.2993 32.142 88.9512L 34.098 89.3688ZM 37.1509 65.0501L 33.9829 63.3221L 33.0251 65.0779L 36.1931 66.8059L 37.1509 65.0501ZM 33.9708 63.3156L 30.5148 61.4916L 29.5812 63.2604L 33.0372 65.0844L 33.9708 63.3156ZM 29.0606 62.218L 24.8366 88.618L 26.8114 88.934L 31.0354 62.534L 29.0606 62.218ZM 38.195 90.7325C 42.1266 90.4049 45.2114 89.4456 47.2936 87.7224L 46.0184 86.1816C 44.3886 87.5304 41.7774 88.4271 38.029 88.7395L 38.195 90.7325ZM 47.3089 87.7094C 49.4245 85.8856 50.3625 83.4556 50.1493 80.543L 48.1547 80.689C 48.3255 83.0244 47.5995 84.8184 46.0031 86.1946L 47.3089 87.7094ZM 50.1485 80.533C 49.945 78.0907 49.2631 75.8905 48.0868 73.953L 46.3772 74.991C 47.3769 76.6375 47.975 78.5333 48.1555 80.699L 50.1485 80.533ZM 48.0947 73.9663C 46.8874 71.9068 44.5207 69.7875 41.1553 67.587L 40.0608 69.261C 43.3513 71.4125 45.4006 73.3252 46.3693 74.9777L 48.0947 73.9663ZM 39.6146 68.309C 38.9106 74.389 38.3993 78.6716 38.0801 81.1608L 40.0639 81.4152C 40.3847 78.9124 40.8974 74.619 41.6014 68.539L 39.6146 68.309ZM 38.0784 81.1751L 37.1184 89.6231L 39.1056 89.8489L 40.0656 81.4009L 38.0784 81.1751Z"/>
</defs>
</svg>
