<svg width="207" height="210" viewBox="0 0 207 210" version="1.1" xmlns="http://www.w3.org/2000/svg" xmlns:xlink="http://www.w3.org/1999/xlink">
<title>Bunny</title>
<desc>Created using Figma</desc>
<g id="Canvas" transform="translate(280 294)">
<g id="Bunny">
<g id="Group">
<g id="Vector">
<use xlink:href="#path0_fill" transform="matrix(0.995449 -0.0952998 0.0952998 0.995449 -254 -110.807)" fill="#AED672"/>
<use xlink:href="#path1_stroke" transform="matrix(0.995449 -0.0952998 0.0952998 0.995449 -254 -110.807)" fill="#487056"/>
</g>
<g id="Ellipse">
<use xlink:href="#path2_fill" transform="matrix(0.977027 -0.213114 0.215363 0.976534 -238.928 -104.684)" fill="#487056"/>
</g>
</g>
<g id="Group">
<g id="Vector">
<use xlink:href="#path0_fill" transform="matrix(0.952614 0.304181 -0.304181 0.952614 -242.091 -131)" fill="#AED672"/>
<use xlink:href="#path1_stroke" transform="matrix(0.952614 0.304181 -0.304181 0.952614 -242.091 -131)" fill="#487056"/>
</g>
<g id="Ellipse">
<use xlink:href="#path2_fill" transform="matrix(0.982049 0.188625 -0.186364 0.982481 -230.645 -119.439)" fill="#487056"/>
</g>
</g>
<g id="Group">
<g id="Vector">
<use xlink:href="#path0_fill" transform="matrix(0.996918 0.0784566 -0.0784566 0.996918 -249.96 -122)" fill="#AED672"/>
<use xlink:href="#path1_stroke" transform="matrix(0.996918 0.0784566 -0.0784566 0.996918 -249.96 -122)" fill="#487056"/>
</g>
<g id="Ellipse">
<use xlink:href="#path2_fill" transform="matrix(0.999169 -0.0407677 0.0430681 0.999072 -236.175 -113.36)" fill="#487056"/>
</g>
</g>
<g id="Group 2">
<g id="Group">
<g id="Vector">
<use xlink:href="#path0_fill" transform="matrix(0.607345 0.794438 -0.794438 0.607345 -257.919 -186.157)" fill="#AED672"/>
<use xlink:href="#path1_stroke" transform="matrix(0.607345 0.794438 -0.794438 0.607345 -257.919 -186.157)" fill="#487056"/>
</g>
<g id="Ellipse">
<use xlink:href="#path2_fill" transform="matrix(0.697592 0.716496 -0.714888 0.699239 -255.144 -170.126)" fill="#487056"/>
</g>
</g>
<g id="Group">
<g id="Vector">
<use xlink:href="#path0_fill" transform="matrix(0.607345 0.794438 -0.794438 0.607345 -255.582 -189.969)" fill="#AED672"/>
<use xlink:href="#path1_stroke" transform="matrix(0.607345 0.794438 -0.794438 0.607345 -255.582 -189.969)" fill="#487056"/>
</g>
<g id="Ellipse">
<use xlink:href="#path2_fill" transform="matrix(0.697592 0.716496 -0.714888 0.699239 -252.807 -173.939)" fill="#487056"/>
</g>
</g>
<g id="Group">
<g id="Vector">
<use xlink:href="#path0_fill" transform="matrix(0.607345 0.794438 -0.794438 0.607345 -253.245 -193.782)" fill="#AED672"/>
<use xlink:href="#path1_stroke" transform="matrix(0.607345 0.794438 -0.794438 0.607345 -253.245 -193.782)" fill="#487056"/>
</g>
<g id="Ellipse">
<use xlink:href="#path2_fill" transform="matrix(0.697592 0.716496 -0.714888 0.699239 -250.47 -177.752)" fill="#487056"/>
</g>
</g>
</g>
<g id="Subtract">
<use xlink:href="#path3_fill" transform="translate(-257.677 -293.428)" fill="#828282"/>
</g>
</g>
</g>
<defs>
<path id="path0_fill" d="M 4.80672 0C 19.8211 2.41975 28.3989 3.07686 44 2.92958C 43.1405 12.6266 42.6321 17.9428 41.4118 26C 25.0128 24.4752 15.9462 23.2709 0 20.507L 4.80672 0Z"/>
<path id="path1_stroke" d="M 4.80672 0L 4.88628 -0.49363L 4.42625 -0.567769L 4.31992 -0.114104L 4.80672 0ZM 44 2.92958L 44.498 2.97372L 44.5467 2.42439L 43.9953 2.4296L 44 2.92958ZM 41.4118 26L 41.3655 26.4979L 41.8354 26.5416L 41.9061 26.0749L 41.4118 26ZM 0 20.507L -0.486806 20.3929L -0.607803 20.9091L -0.0853898 20.9997L 0 20.507ZM 4.72717 0.49363C 19.7696 2.9179 28.3756 3.5771 44.0047 3.42956L 43.9953 2.4296C 28.4223 2.57662 19.8726 1.9216 4.88628 -0.49363L 4.72717 0.49363ZM 43.502 2.88543C 42.6426 12.5805 42.1353 17.884 40.9174 25.9251L 41.9061 26.0749C 43.1289 18.0016 43.6384 12.6726 44.498 2.97372L 43.502 2.88543ZM 41.4581 25.5021C 25.072 23.9786 16.0185 22.776 0.0853898 20.0144L -0.0853898 20.9997C 15.8739 23.7659 24.9536 24.9719 41.3655 26.4979L 41.4581 25.5021ZM 0.486806 20.6211L 5.29353 0.114104L 4.31992 -0.114104L -0.486806 20.3929L 0.486806 20.6211Z"/>
<path id="path2_fill" d="M 14.0485 5.85998C 14.0485 9.09636 10.9036 11.72 7.02424 11.72C 3.14486 11.72 0 9.09636 0 5.85998C 0 2.6236 3.14486 0 7.02424 0C 10.9036 0 14.0485 2.6236 14.0485 5.85998Z"/>
<path id="path3_fill" fill-rule="evenodd" d="M 24.83 119.444C 8.67714 114.429 -0.822847 132.46 6.67714 146.944C 14.1771 161.429 38.1772 159.429 37.83 146.944C 37.83 146.944 49.33 163.444 64.83 172.444C 70.7629 170.13 74.482 169.017 87.33 169.944C 76.83 142.944 86.83 114.944 121.83 125.444L 121.83 128.944C 91.83 120.944 77.83 148.444 95.83 174.944L 95.7108 174.938L 95.5439 174.929C 79.5973 174.068 68.1563 173.45 62.1771 179.429C 56.1771 185.429 57.1495 202.929 78.1633 202.929C 81.8587 202.929 86.3161 203.146 91.0988 203.38C 113.513 204.474 143.071 205.917 134.83 186.944C 141.271 185.792 144.708 184.012 148.677 179.929C 170.177 190.929 181.677 181.556 183.677 167.429C 185.677 153.301 173.677 135.929 159.33 142.444C 141.615 97.5685 119.785 83.4895 69.33 70.4444C 69.3666 70.3238 69.4027 70.2047 69.4385 70.0871C 70.6555 66.0806 71.3812 63.6914 70.83 59.4444C 105.953 62.5971 150.177 51.801 150.177 51.801C 144.677 39.301 112.33 26.4444 97.83 30.9444C 98.4463 30.595 99.521 30.048 100.926 29.3328C 109.587 24.9249 130.805 14.1256 134.677 3.80097C 99.6773 -7.19903 53.33 6.9444 41.83 29.9444C 13.1772 20.9284 -1.82282 52.9285 0.177153 70.4443C 2.17711 87.9601 17.9966 95.4444 24.83 96.4444C 24.83 96.4444 22.33 106.944 24.83 119.444ZM 36.8068 50.1036C 35.9822 46.9696 32.7088 45.1143 29.4953 45.9598C 26.2819 46.8053 24.3453 50.0313 25.1699 53.1654C 25.9945 56.2995 29.268 58.1547 32.4814 57.3092C 35.6949 56.4637 37.6314 53.2377 36.8068 50.1036Z"/>
</defs>
</svg>
